STARTFONT 2.1
FONT -DEC-Terminal-Bold-R-Narrow--14-100-100-100-C-60-DEC-DECtech
SIZE 10 100 100
FONTBOUNDINGBOX 6 14 0 -2

STARTPROPERTIES 24
FOUNDRY "DEC"
FAMILY_NAME "Terminal"
WEIGHT_NAME "Bold"
SLANT "R"
SETWIDTH_NAME "Narrow"
ADD_STYLE_NAME ""
PIXEL_SIZE 14
POINT_SIZE 100
RESOLUTION_X 100
RESOLUTION_Y 100
SPACING "C"
AVERAGE_WIDTH 60
CHARSET_REGISTRY "DEC"
CHARSET_ENCODING "DECtech"
CAP_HEIGHT 9
COPYRIGHT "Copyright (c) 1991 Digital Equipment Corporation. All Rights Reserved."
_DEC_PRODUCTINFO "DECterm Fonts V2.2-1, 11-Nov-1991"
FULL_NAME "Terminal Bold Narrow"
WEIGHT 10
X_HEIGHT 0
QUAD_WIDTH 6
DEFAULT_CHAR 159
FONT_DESCENT 2
FONT_ASCENT 12
ENDPROPERTIES

CHARS 182

STARTCHAR space
ENCODING 32
SWIDTH 430 0
DWIDTH 6 0
BBX 1 1 0 0
BITMAP
00
ENDCHAR

STARTCHAR exclam
ENCODING 33
SWIDTH 430 0
DWIDTH 6 0
BBX 2 9 2 0
BITMAP
C0
C0
C0
C0
C0
C0
00
C0
C0
ENDCHAR

STARTCHAR quotedbl
ENCODING 34
SWIDTH 430 0
DWIDTH 6 0
BBX 5 3 1 7
BITMAP
D8
D8
D8
ENDCHAR

STARTCHAR numbersign
ENCODING 35
SWIDTH 430 0
DWIDTH 6 0
BBX 5 8 1 1
BITMAP
50
F8
F8
50
50
F8
F8
50
ENDCHAR

STARTCHAR dollar
ENCODING 36
SWIDTH 430 0
DWIDTH 6 0
BBX 5 9 1 0
BITMAP
20
70
D8
C0
70
18
D8
70
20
ENDCHAR

STARTCHAR percent
ENCODING 37
SWIDTH 430 0
DWIDTH 6 0
BBX 6 9 0 0
BITMAP
4C
EC
58
18
30
60
68
DC
C8
ENDCHAR

STARTCHAR ampersand
ENCODING 38
SWIDTH 430 0
DWIDTH 6 0
BBX 5 9 1 0
BITMAP
60
D0
D0
60
68
F8
D0
F8
68
ENDCHAR

STARTCHAR quoteright
ENCODING 39
SWIDTH 430 0
DWIDTH 6 0
BBX 3 3 2 7
BITMAP
60
60
C0
ENDCHAR

STARTCHAR parenleft
ENCODING 40
SWIDTH 430 0
DWIDTH 6 0
BBX 4 11 1 -1
BITMAP
30
60
60
C0
C0
C0
C0
C0
60
60
30
ENDCHAR

STARTCHAR parenright
ENCODING 41
SWIDTH 430 0
DWIDTH 6 0
BBX 4 11 1 -1
BITMAP
C0
60
60
30
30
30
30
30
60
60
C0
ENDCHAR

STARTCHAR asterisk
ENCODING 42
SWIDTH 430 0
DWIDTH 6 0
BBX 5 7 1 2
BITMAP
20
A8
70
70
70
A8
20
ENDCHAR

STARTCHAR plus
ENCODING 43
SWIDTH 430 0
DWIDTH 6 0
BBX 4 6 1 1
BITMAP
60
60
F0
F0
60
60
ENDCHAR

STARTCHAR comma
ENCODING 44
SWIDTH 430 0
DWIDTH 6 0
BBX 3 3 1 -1
BITMAP
60
60
C0
ENDCHAR

STARTCHAR minus
ENCODING 45
SWIDTH 430 0
DWIDTH 6 0
BBX 4 2 1 3
BITMAP
F0
F0
ENDCHAR

STARTCHAR period
ENCODING 46
SWIDTH 430 0
DWIDTH 6 0
BBX 2 2 2 0
BITMAP
C0
C0
ENDCHAR

STARTCHAR slash
ENCODING 47
SWIDTH 430 0
DWIDTH 6 0
BBX 5 11 1 -1
BITMAP
18
18
18
30
30
30
60
60
C0
C0
C0
ENDCHAR

STARTCHAR zero
ENCODING 48
SWIDTH 430 0
DWIDTH 6 0
BBX 5 9 1 0
BITMAP
70
70
D8
D8
D8
D8
D8
70
70
ENDCHAR

STARTCHAR one
ENCODING 49
SWIDTH 430 0
DWIDTH 6 0
BBX 4 9 1 0
BITMAP
20
E0
60
60
60
60
60
60
F0
ENDCHAR

STARTCHAR two
ENCODING 50
SWIDTH 430 0
DWIDTH 6 0
BBX 5 9 1 0
BITMAP
70
D8
D8
18
30
70
60
C0
F8
ENDCHAR

STARTCHAR three
ENCODING 51
SWIDTH 430 0
DWIDTH 6 0
BBX 5 9 1 0
BITMAP
70
D8
D8
18
30
18
D8
D8
70
ENDCHAR

STARTCHAR four
ENCODING 52
SWIDTH 430 0
DWIDTH 6 0
BBX 5 9 1 0
BITMAP
10
30
30
70
70
B0
F8
30
30
ENDCHAR

STARTCHAR five
ENCODING 53
SWIDTH 430 0
DWIDTH 6 0
BBX 5 9 1 0
BITMAP
F8
C0
C0
F0
D8
18
D8
D8
70
ENDCHAR

STARTCHAR six
ENCODING 54
SWIDTH 430 0
DWIDTH 6 0
BBX 5 9 1 0
BITMAP
70
D8
C0
F0
D8
D8
D8
D8
70
ENDCHAR

STARTCHAR seven
ENCODING 55
SWIDTH 430 0
DWIDTH 6 0
BBX 5 9 1 0
BITMAP
F8
18
18
30
30
30
60
60
60
ENDCHAR

STARTCHAR eight
ENCODING 56
SWIDTH 430 0
DWIDTH 6 0
BBX 5 9 1 0
BITMAP
70
D8
D8
D8
70
D8
D8
D8
70
ENDCHAR

STARTCHAR nine
ENCODING 57
SWIDTH 430 0
DWIDTH 6 0
BBX 5 9 1 0
BITMAP
70
D8
D8
D8
D8
78
18
D8
70
ENDCHAR

STARTCHAR colon
ENCODING 58
SWIDTH 430 0
DWIDTH 6 0
BBX 2 7 2 0
BITMAP
C0
C0
00
00
00
C0
C0
ENDCHAR

STARTCHAR semicolon
ENCODING 59
SWIDTH 430 0
DWIDTH 6 0
BBX 3 8 1 -1
BITMAP
60
60
00
00
00
60
60
C0
ENDCHAR

STARTCHAR less
ENCODING 60
SWIDTH 430 0
DWIDTH 6 0
BBX 4 8 1 0
BITMAP
30
60
60
C0
C0
60
60
30
ENDCHAR

STARTCHAR equal
ENCODING 61
SWIDTH 430 0
DWIDTH 6 0
BBX 4 5 1 2
BITMAP
F0
F0
00
F0
F0
ENDCHAR

STARTCHAR greater
ENCODING 62
SWIDTH 430 0
DWIDTH 6 0
BBX 4 8 1 0
BITMAP
C0
60
60
30
30
60
60
C0
ENDCHAR

STARTCHAR question
ENCODING 63
SWIDTH 430 0
DWIDTH 6 0
BBX 5 9 1 0
BITMAP
70
D8
D8
18
30
60
00
60
60
ENDCHAR

STARTCHAR at
ENCODING 64
SWIDTH 430 0
DWIDTH 6 0
BBX 5 9 1 0
BITMAP
70
C8
C8
D8
E8
F8
D8
C0
78
ENDCHAR

STARTCHAR A
ENCODING 65
SWIDTH 430 0
DWIDTH 6 0
BBX 5 9 1 0
BITMAP
20
70
D8
D8
D8
F8
D8
D8
D8
ENDCHAR

STARTCHAR B
ENCODING 66
SWIDTH 430 0
DWIDTH 6 0
BBX 5 9 1 0
BITMAP
F0
D8
D8
D8
F0
D8
D8
D8
F0
ENDCHAR

STARTCHAR C
ENCODING 67
SWIDTH 430 0
DWIDTH 6 0
BBX 5 9 1 0
BITMAP
70
D8
D8
C0
C0
C0
D8
D8
70
ENDCHAR

STARTCHAR D
ENCODING 68
SWIDTH 430 0
DWIDTH 6 0
BBX 5 9 1 0
BITMAP
F0
D8
D8
D8
D8
D8
D8
D8
F0
ENDCHAR

STARTCHAR E
ENCODING 69
SWIDTH 430 0
DWIDTH 6 0
BBX 4 9 2 0
BITMAP
F0
C0
C0
C0
E0
C0
C0
C0
F0
ENDCHAR

STARTCHAR F
ENCODING 70
SWIDTH 430 0
DWIDTH 6 0
BBX 4 9 2 0
BITMAP
F0
C0
C0
C0
E0
C0
C0
C0
C0
ENDCHAR

STARTCHAR G
ENCODING 71
SWIDTH 430 0
DWIDTH 6 0
BBX 5 9 1 0
BITMAP
70
D8
D8
C0
D8
D8
D8
D8
78
ENDCHAR

STARTCHAR H
ENCODING 72
SWIDTH 430 0
DWIDTH 6 0
BBX 5 9 1 0
BITMAP
D8
D8
D8
D8
F8
D8
D8
D8
D8
ENDCHAR

STARTCHAR I
ENCODING 73
SWIDTH 430 0
DWIDTH 6 0
BBX 4 9 2 0
BITMAP
F0
60
60
60
60
60
60
60
F0
ENDCHAR

STARTCHAR J
ENCODING 74
SWIDTH 430 0
DWIDTH 6 0
BBX 5 9 1 0
BITMAP
38
18
18
18
18
18
D8
D8
70
ENDCHAR

STARTCHAR K
ENCODING 75
SWIDTH 430 0
DWIDTH 6 0
BBX 5 9 1 0
BITMAP
D8
D8
D8
F0
F0
F8
D8
D8
D8
ENDCHAR

STARTCHAR L
ENCODING 76
SWIDTH 430 0
DWIDTH 6 0
BBX 4 9 2 0
BITMAP
C0
C0
C0
C0
C0
C0
C0
C0
F0
ENDCHAR

STARTCHAR M
ENCODING 77
SWIDTH 430 0
DWIDTH 6 0
BBX 5 9 1 0
BITMAP
D8
D8
F8
F8
F8
D8
D8
D8
D8
ENDCHAR

STARTCHAR N
ENCODING 78
SWIDTH 430 0
DWIDTH 6 0
BBX 5 9 1 0
BITMAP
98
D8
D8
F8
F8
F8
D8
D8
C8
ENDCHAR

STARTCHAR O
ENCODING 79
SWIDTH 430 0
DWIDTH 6 0
BBX 5 9 1 0
BITMAP
70
D8
D8
D8
D8
D8
D8
D8
70
ENDCHAR

STARTCHAR P
ENCODING 80
SWIDTH 430 0
DWIDTH 6 0
BBX 5 9 1 0
BITMAP
F0
D8
D8
D8
D8
D8
F0
C0
C0
ENDCHAR

STARTCHAR Q
ENCODING 81
SWIDTH 430 0
DWIDTH 6 0
BBX 5 10 1 -1
BITMAP
70
D8
D8
D8
D8
D8
D8
D8
70
18
ENDCHAR

STARTCHAR R
ENCODING 82
SWIDTH 430 0
DWIDTH 6 0
BBX 5 9 1 0
BITMAP
F0
D8
D8
D8
D8
F0
D8
D8
D8
ENDCHAR

STARTCHAR S
ENCODING 83
SWIDTH 430 0
DWIDTH 6 0
BBX 5 9 1 0
BITMAP
70
D8
C0
F0
78
18
D8
D8
70
ENDCHAR

STARTCHAR T
ENCODING 84
SWIDTH 430 0
DWIDTH 6 0
BBX 6 9 0 0
BITMAP
FC
30
30
30
30
30
30
30
30
ENDCHAR

STARTCHAR U
ENCODING 85
SWIDTH 430 0
DWIDTH 6 0
BBX 5 9 1 0
BITMAP
D8
D8
D8
D8
D8
D8
D8
D8
70
ENDCHAR

STARTCHAR V
ENCODING 86
SWIDTH 430 0
DWIDTH 6 0
BBX 5 9 1 0
BITMAP
D8
D8
D8
D8
D8
D8
D8
70
20
ENDCHAR

STARTCHAR W
ENCODING 87
SWIDTH 430 0
DWIDTH 6 0
BBX 5 9 1 0
BITMAP
D8
D8
D8
D8
F8
F8
F8
50
50
ENDCHAR

STARTCHAR X
ENCODING 88
SWIDTH 430 0
DWIDTH 6 0
BBX 5 9 1 0
BITMAP
D8
D8
D8
70
20
70
D8
D8
D8
ENDCHAR

STARTCHAR Y
ENCODING 89
SWIDTH 430 0
DWIDTH 6 0
BBX 5 9 1 0
BITMAP
D8
D8
D8
D8
78
30
30
30
30
ENDCHAR

STARTCHAR Z
ENCODING 90
SWIDTH 430 0
DWIDTH 6 0
BBX 5 9 1 0
BITMAP
F8
18
18
30
60
C0
C0
C0
F8
ENDCHAR

STARTCHAR bracketleft
ENCODING 91
SWIDTH 430 0
DWIDTH 6 0
BBX 4 11 2 -1
BITMAP
F0
C0
C0
C0
C0
C0
C0
C0
C0
C0
F0
ENDCHAR

STARTCHAR backslash
ENCODING 92
SWIDTH 430 0
DWIDTH 6 0
BBX 5 11 1 -1
BITMAP
C0
C0
C0
60
60
60
30
30
30
18
18
ENDCHAR

STARTCHAR bracketright
ENCODING 93
SWIDTH 430 0
DWIDTH 6 0
BBX 4 11 1 -1
BITMAP
F0
30
30
30
30
30
30
30
30
30
F0
ENDCHAR

STARTCHAR asciicircum
ENCODING 94
SWIDTH 430 0
DWIDTH 6 0
BBX 5 3 1 4
BITMAP
20
70
D8
ENDCHAR

STARTCHAR ldblank
ENCODING 95
SWIDTH 430 0
DWIDTH 6 0
BBX 1 1 0 0
BITMAP
00
ENDCHAR

STARTCHAR diamond
ENCODING 96
SWIDTH 430 0
DWIDTH 6 0
BBX 5 5 1 2
BITMAP
20
70
F8
70
20
ENDCHAR

STARTCHAR checkerboard
ENCODING 97
SWIDTH 430 0
DWIDTH 6 0
BBX 6 14 0 -2
BITMAP
90
6C
90
6C
90
6C
90
6C
90
6C
90
6C
90
6C
ENDCHAR

STARTCHAR HT
ENCODING 98
SWIDTH 430 0
DWIDTH 6 0
BBX 5 11 1 -1
BITMAP
D8
D8
F8
D8
D8
00
78
30
30
30
30
ENDCHAR

STARTCHAR FF
ENCODING 99
SWIDTH 430 0
DWIDTH 6 0
BBX 5 11 1 -1
BITMAP
F0
C0
E0
C0
C0
00
78
60
70
60
60
ENDCHAR

STARTCHAR CR
ENCODING 100
SWIDTH 430 0
DWIDTH 6 0
BBX 5 11 1 -1
BITMAP
78
F8
C0
F8
78
00
F0
F8
D8
F0
D8
ENDCHAR

STARTCHAR LF
ENCODING 101
SWIDTH 430 0
DWIDTH 6 0
BBX 5 11 1 -1
BITMAP
C0
C0
C0
F0
F0
00
78
60
70
60
60
ENDCHAR

STARTCHAR degree
ENCODING 102
SWIDTH 430 0
DWIDTH 6 0
BBX 5 4 1 5
BITMAP
70
D8
D8
70
ENDCHAR

STARTCHAR plusminus
ENCODING 103
SWIDTH 430 0
DWIDTH 6 0
BBX 4 8 1 -1
BITMAP
60
60
F0
60
60
00
F0
F0
ENDCHAR

STARTCHAR N0L
ENCODING 104
SWIDTH 430 0
DWIDTH 6 0
BBX 5 11 1 -1
BITMAP
98
D8
F8
D8
C8
00
60
60
60
60
78
ENDCHAR

STARTCHAR VT
ENCODING 105
SWIDTH 430 0
DWIDTH 6 0
BBX 5 11 1 -1
BITMAP
D8
D8
70
70
20
00
78
30
30
30
30
ENDCHAR

STARTCHAR ldcornsqlr
ENCODING 106
SWIDTH 430 0
DWIDTH 6 0
BBX 4 9 0 3
BITMAP
30
30
30
30
30
30
30
F0
F0
ENDCHAR

STARTCHAR ldcornsqur
ENCODING 107
SWIDTH 430 0
DWIDTH 6 0
BBX 4 7 0 -2
BITMAP
F0
F0
30
30
30
30
30
ENDCHAR

STARTCHAR ldcornsqul
ENCODING 108
SWIDTH 430 0
DWIDTH 6 0
BBX 4 7 2 -2
BITMAP
F0
F0
C0
C0
C0
C0
C0
ENDCHAR

STARTCHAR ldcornsqll
ENCODING 109
SWIDTH 430 0
DWIDTH 6 0
BBX 4 9 2 3
BITMAP
C0
C0
C0
C0
C0
C0
C0
F0
F0
ENDCHAR

STARTCHAR ldcross
ENCODING 110
SWIDTH 430 0
DWIDTH 6 0
BBX 6 14 0 -2
BITMAP
30
30
30
30
30
30
30
FC
FC
30
30
30
30
30
ENDCHAR

STARTCHAR ldscan1
ENCODING 111
SWIDTH 430 0
DWIDTH 6 0
BBX 6 2 0 8
BITMAP
FC
FC
ENDCHAR

STARTCHAR ldscan3
ENCODING 112
SWIDTH 430 0
DWIDTH 6 0
BBX 6 2 0 5
BITMAP
FC
FC
ENDCHAR

STARTCHAR ldhorizontal
ENCODING 113
SWIDTH 430 0
DWIDTH 6 0
BBX 6 2 0 3
BITMAP
FC
FC
ENDCHAR

STARTCHAR ldscan7
ENCODING 114
SWIDTH 430 0
DWIDTH 6 0
BBX 6 2 0 0
BITMAP
FC
FC
ENDCHAR

STARTCHAR ldscan9
ENCODING 115
SWIDTH 430 0
DWIDTH 6 0
BBX 6 2 0 -2
BITMAP
FC
FC
ENDCHAR

STARTCHAR ldteelft
ENCODING 116
SWIDTH 430 0
DWIDTH 6 0
BBX 4 14 2 -2
BITMAP
C0
C0
C0
C0
C0
C0
C0
F0
F0
C0
C0
C0
C0
C0
ENDCHAR

STARTCHAR ldteert
ENCODING 117
SWIDTH 430 0
DWIDTH 6 0
BBX 4 14 0 -2
BITMAP
30
30
30
30
30
30
30
F0
F0
30
30
30
30
30
ENDCHAR

STARTCHAR ldteebt
ENCODING 118
SWIDTH 430 0
DWIDTH 6 0
BBX 6 9 0 3
BITMAP
30
30
30
30
30
30
30
FC
FC
ENDCHAR

STARTCHAR ldteetp
ENCODING 119
SWIDTH 430 0
DWIDTH 6 0
BBX 6 7 0 -2
BITMAP
FC
FC
30
30
30
30
30
ENDCHAR

STARTCHAR ldvertical
ENCODING 120
SWIDTH 430 0
DWIDTH 6 0
BBX 2 14 2 -2
BITMAP
C0
C0
C0
C0
C0
C0
C0
C0
C0
C0
C0
C0
C0
C0
ENDCHAR

STARTCHAR lessequal
ENCODING 121
SWIDTH 430 0
DWIDTH 6 0
BBX 5 9 1 0
BITMAP
18
30
60
C0
60
30
18
F8
F8
ENDCHAR

STARTCHAR greaterequal
ENCODING 122
SWIDTH 430 0
DWIDTH 6 0
BBX 5 9 1 0
BITMAP
C0
60
30
18
30
60
C0
F8
F8
ENDCHAR

STARTCHAR pi
ENCODING 123
SWIDTH 430 0
DWIDTH 6 0
BBX 6 6 0 0
BITMAP
FC
58
58
58
58
98
ENDCHAR

STARTCHAR notequal
ENCODING 124
SWIDTH 430 0
DWIDTH 6 0
BBX 5 7 1 1
BITMAP
08
F8
F8
20
F8
F8
80
ENDCHAR

STARTCHAR sterling
ENCODING 125
SWIDTH 430 0
DWIDTH 6 0
BBX 5 9 1 0
BITMAP
30
68
68
60
F0
60
60
E8
B8
ENDCHAR

STARTCHAR periodcentered
ENCODING 126
SWIDTH 430 0
DWIDTH 6 0
BBX 2 2 2 3
BITMAP
C0
C0
ENDCHAR

STARTCHAR Error
ENCODING 159
SWIDTH 430 0
DWIDTH 6 0
BBX 6 14 0 -2
BITMAP
38
7C
FC
EC
EC
E0
F0
78
38
38
00
38
38
38
ENDCHAR

STARTCHAR space
ENCODING 160
SWIDTH 430 0
DWIDTH 6 0
BBX 1 1 0 0
BITMAP
00
ENDCHAR

STARTCHAR ldradicalbt
ENCODING 161
SWIDTH 430 0
DWIDTH 6 0
BBX 4 12 0 0
BITMAP
30
30
30
30
30
30
30
30
F0
F0
30
10
ENDCHAR

STARTCHAR ldradicaltp
ENCODING 162
SWIDTH 430 0
DWIDTH 6 0
BBX 4 7 2 -2
BITMAP
F0
F0
C0
C0
C0
C0
C0
ENDCHAR

STARTCHAR ldhorizontal
ENCODING 163
SWIDTH 430 0
DWIDTH 6 0
BBX 6 2 0 3
BITMAP
FC
FC
ENDCHAR

STARTCHAR ldintegraltp
ENCODING 164
SWIDTH 430 0
DWIDTH 6 0
BBX 4 12 2 -2
BITMAP
60
F0
D0
C0
C0
C0
C0
C0
C0
C0
C0
C0
ENDCHAR

STARTCHAR ldintegralbt
ENCODING 165
SWIDTH 430 0
DWIDTH 6 0
BBX 4 13 0 -1
BITMAP
30
30
30
30
30
30
30
30
30
30
B0
F0
60
ENDCHAR

STARTCHAR ldvertical
ENCODING 166
SWIDTH 430 0
DWIDTH 6 0
BBX 2 14 2 -2
BITMAP
C0
C0
C0
C0
C0
C0
C0
C0
C0
C0
C0
C0
C0
C0
ENDCHAR

STARTCHAR ldbracketlfttp
ENCODING 167
SWIDTH 430 0
DWIDTH 6 0
BBX 4 12 2 -2
BITMAP
F0
F0
C0
C0
C0
C0
C0
C0
C0
C0
C0
C0
ENDCHAR

STARTCHAR ldbracketlftbt
ENCODING 168
SWIDTH 430 0
DWIDTH 6 0
BBX 4 13 2 -1
BITMAP
C0
C0
C0
C0
C0
C0
C0
C0
C0
C0
C0
F0
F0
ENDCHAR

STARTCHAR ldbracketrttp
ENCODING 169
SWIDTH 430 0
DWIDTH 6 0
BBX 4 12 0 -2
BITMAP
F0
F0
30
30
30
30
30
30
30
30
30
30
ENDCHAR

STARTCHAR ldbracketrtbt
ENCODING 170
SWIDTH 430 0
DWIDTH 6 0
BBX 4 13 0 -1
BITMAP
30
30
30
30
30
30
30
30
30
30
30
F0
F0
ENDCHAR

STARTCHAR ldbracelfttp
ENCODING 171
SWIDTH 430 0
DWIDTH 6 0
BBX 4 12 2 -2
BITMAP
70
F0
C0
C0
C0
C0
C0
C0
C0
C0
C0
C0
ENDCHAR

STARTCHAR ldbracelftbt
ENCODING 172
SWIDTH 430 0
DWIDTH 6 0
BBX 4 13 2 -1
BITMAP
C0
C0
C0
C0
C0
C0
C0
C0
C0
C0
C0
F0
70
ENDCHAR

STARTCHAR ldbracerttp
ENCODING 173
SWIDTH 430 0
DWIDTH 6 0
BBX 4 12 0 -2
BITMAP
E0
F0
30
30
30
30
30
30
30
30
30
30
ENDCHAR

STARTCHAR ldbracertbt
ENCODING 174
SWIDTH 430 0
DWIDTH 6 0
BBX 4 13 0 -1
BITMAP
30
30
30
30
30
30
30
30
30
30
30
F0
E0
ENDCHAR

STARTCHAR ldbracelftmid
ENCODING 175
SWIDTH 430 0
DWIDTH 6 0
BBX 4 14 0 -2
BITMAP
30
30
30
30
30
30
60
C0
60
30
30
30
30
30
ENDCHAR

STARTCHAR ldbracertmid
ENCODING 176
SWIDTH 430 0
DWIDTH 6 0
BBX 4 14 2 -2
BITMAP
C0
C0
C0
C0
C0
C0
60
30
60
C0
C0
C0
C0
C0
ENDCHAR

STARTCHAR ldsigmalfttp
ENCODING 177
SWIDTH 430 0
DWIDTH 6 0
BBX 4 7 2 -2
BITMAP
F0
F0
C0
60
60
30
30
ENDCHAR

STARTCHAR ldsigmalftbt
ENCODING 178
SWIDTH 430 0
DWIDTH 6 0
BBX 4 9 2 3
BITMAP
10
30
30
60
60
C0
C0
F0
F0
ENDCHAR

STARTCHAR ldbackslash
ENCODING 179
SWIDTH 430 0
DWIDTH 6 0
BBX 6 14 0 -2
BITMAP
80
80
C0
C0
60
60
30
30
30
18
18
0C
0C
0C
ENDCHAR

STARTCHAR ldslash
ENCODING 180
SWIDTH 430 0
DWIDTH 6 0
BBX 6 14 0 -2
BITMAP
04
04
0C
0C
18
18
30
30
30
60
60
C0
C0
C0
ENDCHAR

STARTCHAR ldsigmarttp
ENCODING 181
SWIDTH 430 0
DWIDTH 6 0
BBX 5 3 0 2
BITMAP
F8
F8
18
ENDCHAR

STARTCHAR ldsigmartbt
ENCODING 182
SWIDTH 430 0
DWIDTH 6 0
BBX 5 3 0 3
BITMAP
18
F8
F8
ENDCHAR

STARTCHAR ldsigmamid
ENCODING 183
SWIDTH 430 0
DWIDTH 6 0
BBX 4 14 0 -2
BITMAP
C0
C0
C0
C0
60
60
30
30
30
60
60
C0
C0
C0
ENDCHAR

STARTCHAR lessequal
ENCODING 188
SWIDTH 430 0
DWIDTH 6 0
BBX 5 9 1 0
BITMAP
18
30
60
C0
60
30
18
F8
F8
ENDCHAR

STARTCHAR notequal
ENCODING 189
SWIDTH 430 0
DWIDTH 6 0
BBX 5 7 1 1
BITMAP
08
F8
F8
20
F8
F8
80
ENDCHAR

STARTCHAR greaterequal
ENCODING 190
SWIDTH 430 0
DWIDTH 6 0
BBX 5 9 1 0
BITMAP
C0
60
30
18
30
60
C0
F8
F8
ENDCHAR

STARTCHAR integral
ENCODING 191
SWIDTH 430 0
DWIDTH 6 0
BBX 6 11 0 -1
BITMAP
18
3C
34
30
30
30
30
30
B0
F0
60
ENDCHAR

STARTCHAR therefore
ENCODING 192
SWIDTH 430 0
DWIDTH 6 0
BBX 6 6 0 2
BITMAP
30
30
00
00
CC
CC
ENDCHAR

STARTCHAR proportional
ENCODING 193
SWIDTH 430 0
DWIDTH 6 0
BBX 6 6 0 2
BITMAP
64
D4
D8
D8
D4
64
ENDCHAR

STARTCHAR infinity
ENCODING 194
SWIDTH 430 0
DWIDTH 6 0
BBX 6 6 0 2
BITMAP
78
B4
B4
B4
B4
78
ENDCHAR

STARTCHAR divide
ENCODING 195
SWIDTH 430 0
DWIDTH 6 0
BBX 6 8 0 1
BITMAP
30
30
00
FC
FC
00
30
30
ENDCHAR

STARTCHAR Delta
ENCODING 196
SWIDTH 430 0
DWIDTH 6 0
BBX 5 6 1 2
BITMAP
20
50
88
88
F8
F8
ENDCHAR

STARTCHAR gradient
ENCODING 197
SWIDTH 430 0
DWIDTH 6 0
BBX 5 6 1 2
BITMAP
F8
F8
88
88
50
20
ENDCHAR

STARTCHAR Phi
ENCODING 198
SWIDTH 430 0
DWIDTH 6 0
BBX 6 9 0 0
BITMAP
78
30
78
B4
B4
B4
78
30
78
ENDCHAR

STARTCHAR Gamma
ENCODING 199
SWIDTH 430 0
DWIDTH 6 0
BBX 5 9 1 0
BITMAP
F8
68
60
60
60
60
60
60
F0
ENDCHAR

STARTCHAR similar
ENCODING 200
SWIDTH 430 0
DWIDTH 6 0
BBX 5 4 1 2
BITMAP
48
E8
B8
90
ENDCHAR

STARTCHAR approxequal
ENCODING 201
SWIDTH 430 0
DWIDTH 6 0
BBX 5 7 1 0
BITMAP
48
E8
B8
90
00
F8
F8
ENDCHAR

STARTCHAR Theta
ENCODING 202
SWIDTH 430 0
DWIDTH 6 0
BBX 5 9 1 0
BITMAP
20
70
D8
88
D8
88
D8
70
20
ENDCHAR

STARTCHAR multiply
ENCODING 203
SWIDTH 430 0
DWIDTH 6 0
BBX 4 5 1 2
BITMAP
90
F0
60
F0
90
ENDCHAR

STARTCHAR Lambda
ENCODING 204
SWIDTH 430 0
DWIDTH 6 0
BBX 5 9 1 0
BITMAP
20
70
50
D8
D8
D8
D8
D8
D8
ENDCHAR

STARTCHAR arrowdblboth
ENCODING 205
SWIDTH 430 0
DWIDTH 6 0
BBX 6 9 0 0
BITMAP
48
48
78
FC
84
FC
78
48
48
ENDCHAR

STARTCHAR arrowdblright
ENCODING 206
SWIDTH 430 0
DWIDTH 6 0
BBX 5 9 1 0
BITMAP
20
20
F0
F8
08
F8
F0
20
20
ENDCHAR

STARTCHAR equivalence
ENCODING 207
SWIDTH 430 0
DWIDTH 6 0
BBX 5 8 1 0
BITMAP
F8
F8
00
F8
F8
00
F8
F8
ENDCHAR

STARTCHAR Pi
ENCODING 208
SWIDTH 430 0
DWIDTH 6 0
BBX 6 9 0 0
BITMAP
FC
FC
68
68
68
68
68
68
68
ENDCHAR

STARTCHAR Psi
ENCODING 209
SWIDTH 430 0
DWIDTH 6 0
BBX 6 9 0 0
BITMAP
84
B4
B4
B4
B4
B4
78
30
78
ENDCHAR

STARTCHAR Sigma
ENCODING 211
SWIDTH 430 0
DWIDTH 6 0
BBX 5 9 1 0
BITMAP
F8
F8
C8
60
30
60
C8
F8
F8
ENDCHAR

STARTCHAR radical
ENCODING 214
SWIDTH 430 0
DWIDTH 6 0
BBX 6 10 0 0
BITMAP
0C
0C
0C
18
18
18
D8
D0
70
30
ENDCHAR

STARTCHAR Omega
ENCODING 215
SWIDTH 430 0
DWIDTH 6 0
BBX 5 9 1 0
BITMAP
70
F8
D8
D8
D8
D8
50
D8
D8
ENDCHAR

STARTCHAR Xi
ENCODING 216
SWIDTH 430 0
DWIDTH 6 0
BBX 5 9 1 0
BITMAP
F8
F8
00
70
70
00
00
F8
F8
ENDCHAR

STARTCHAR Upsilon1
ENCODING 217
SWIDTH 430 0
DWIDTH 6 0
BBX 6 9 0 0
BITMAP
CC
CC
CC
48
78
30
30
30
30
ENDCHAR

STARTCHAR propersubset
ENCODING 218
SWIDTH 430 0
DWIDTH 6 0
BBX 5 7 1 1
BITMAP
78
F8
C0
C0
C0
F8
78
ENDCHAR

STARTCHAR propersuperset
ENCODING 219
SWIDTH 430 0
DWIDTH 6 0
BBX 5 7 1 1
BITMAP
F0
F8
18
18
18
F8
F0
ENDCHAR

STARTCHAR intersection
ENCODING 220
SWIDTH 430 0
DWIDTH 6 0
BBX 5 7 1 1
BITMAP
70
F8
D8
D8
D8
D8
D8
ENDCHAR

STARTCHAR union
ENCODING 221
SWIDTH 430 0
DWIDTH 6 0
BBX 5 7 1 1
BITMAP
D8
D8
D8
D8
D8
F8
70
ENDCHAR

STARTCHAR logicaland
ENCODING 222
SWIDTH 430 0
DWIDTH 6 0
BBX 5 7 1 1
BITMAP
20
70
F8
D8
D8
D8
D8
ENDCHAR

STARTCHAR logicalor
ENCODING 223
SWIDTH 430 0
DWIDTH 6 0
BBX 5 7 1 1
BITMAP
D8
D8
D8
D8
F8
70
20
ENDCHAR

STARTCHAR logicalnot
ENCODING 224
SWIDTH 430 0
DWIDTH 6 0
BBX 5 3 1 2
BITMAP
F8
F8
18
ENDCHAR

STARTCHAR alpha
ENCODING 225
SWIDTH 430 0
DWIDTH 6 0
BBX 5 7 1 0
BITMAP
28
78
D0
D0
D0
D8
78
ENDCHAR

STARTCHAR beta
ENCODING 226
SWIDTH 430 0
DWIDTH 6 0
BBX 5 9 1 0
BITMAP
18
28
28
70
78
58
58
D8
F0
ENDCHAR

STARTCHAR chi
ENCODING 227
SWIDTH 430 0
DWIDTH 6 0
BBX 6 9 0 -2
BITMAP
6C
6C
6C
38
38
38
6C
CC
CC
ENDCHAR

STARTCHAR delta
ENCODING 228
SWIDTH 430 0
DWIDTH 6 0
BBX 5 10 1 0
BITMAP
70
F8
C0
70
D8
D8
D8
D8
D8
70
ENDCHAR

STARTCHAR epsilon
ENCODING 229
SWIDTH 430 0
DWIDTH 6 0
BBX 6 7 0 0
BITMAP
3C
7C
60
78
C0
F8
78
ENDCHAR

STARTCHAR phi
ENCODING 230
SWIDTH 430 0
DWIDTH 6 0
BBX 5 11 1 -2
BITMAP
10
10
78
F8
A8
A8
A8
F8
F0
40
40
ENDCHAR

STARTCHAR gamma
ENCODING 231
SWIDTH 430 0
DWIDTH 6 0
BBX 6 9 0 -2
BITMAP
64
E4
2C
38
38
30
30
60
60
ENDCHAR

STARTCHAR eta
ENCODING 232
SWIDTH 430 0
DWIDTH 6 0
BBX 6 9 0 -2
BITMAP
D8
7C
6C
6C
6C
6C
6C
0C
04
ENDCHAR

STARTCHAR iota
ENCODING 233
SWIDTH 430 0
DWIDTH 6 0
BBX 5 7 1 0
BITMAP
C0
C0
C0
C0
C8
F8
70
ENDCHAR

STARTCHAR theta
ENCODING 234
SWIDTH 430 0
DWIDTH 6 0
BBX 5 9 1 0
BITMAP
70
D8
D8
D8
F8
D8
D8
D8
70
ENDCHAR

STARTCHAR kappa
ENCODING 235
SWIDTH 430 0
DWIDTH 6 0
BBX 6 9 0 0
BITMAP
C0
60
64
64
78
70
70
68
6C
ENDCHAR

STARTCHAR lambda
ENCODING 236
SWIDTH 430 0
DWIDTH 6 0
BBX 5 9 1 0
BITMAP
40
60
60
30
70
58
D8
C8
C8
ENDCHAR

STARTCHAR nu
ENCODING 238
SWIDTH 430 0
DWIDTH 6 0
BBX 6 8 0 0
BITMAP
C0
6C
6C
6C
6C
6C
68
70
ENDCHAR

STARTCHAR partialdiff
ENCODING 239
SWIDTH 430 0
DWIDTH 6 0
BBX 5 9 1 0
BITMAP
E0
F0
30
58
D8
D8
D8
D8
70
ENDCHAR

STARTCHAR pi
ENCODING 240
SWIDTH 430 0
DWIDTH 6 0
BBX 6 6 0 0
BITMAP
FC
58
58
58
58
98
ENDCHAR

STARTCHAR psi
ENCODING 241
SWIDTH 430 0
DWIDTH 6 0
BBX 6 10 0 -1
BITMAP
30
30
B4
B4
B4
B4
78
30
30
30
ENDCHAR

STARTCHAR rho
ENCODING 242
SWIDTH 430 0
DWIDTH 6 0
BBX 5 9 1 -2
BITMAP
30
78
68
C8
D8
D0
E0
C0
C0
ENDCHAR

STARTCHAR sigma
ENCODING 243
SWIDTH 430 0
DWIDTH 6 0
BBX 5 7 1 0
BITMAP
38
70
D8
D8
D8
D8
70
ENDCHAR

STARTCHAR tau
ENCODING 244
SWIDTH 430 0
DWIDTH 6 0
BBX 6 8 0 0
BITMAP
04
7C
F8
B0
30
30
30
38
ENDCHAR

STARTCHAR florin
ENCODING 246
SWIDTH 430 0
DWIDTH 6 0
BBX 6 11 0 -2
BITMAP
18
3C
34
30
78
30
30
30
B0
F0
60
ENDCHAR

STARTCHAR omega
ENCODING 247
SWIDTH 430 0
DWIDTH 6 0
BBX 6 7 0 0
BITMAP
48
84
B4
B4
B4
FC
78
ENDCHAR

STARTCHAR xi
ENCODING 248
SWIDTH 430 0
DWIDTH 6 0
BBX 6 11 0 -2
BITMAP
38
78
90
30
38
60
60
7C
3C
04
08
ENDCHAR

STARTCHAR upsilon
ENCODING 249
SWIDTH 430 0
DWIDTH 6 0
BBX 6 8 0 0
BITMAP
80
EC
6C
6C
6C
6C
68
30
ENDCHAR

STARTCHAR zeta
ENCODING 250
SWIDTH 430 0
DWIDTH 6 0
BBX 6 11 0 -2
BITMAP
3C
7C
98
30
20
60
60
7C
3C
04
08
ENDCHAR

STARTCHAR arrowleft
ENCODING 251
SWIDTH 430 0
DWIDTH 6 0
BBX 5 6 1 1
BITMAP
20
60
F8
F8
60
20
ENDCHAR

STARTCHAR arrowup
ENCODING 252
SWIDTH 430 0
DWIDTH 6 0
BBX 6 9 0 0
BITMAP
30
78
FC
30
30
30
30
30
30
ENDCHAR

STARTCHAR arrowright
ENCODING 253
SWIDTH 430 0
DWIDTH 6 0
BBX 5 6 0 1
BITMAP
20
30
F8
F8
30
20
ENDCHAR

STARTCHAR arrowdown
ENCODING 254
SWIDTH 430 0
DWIDTH 6 0
BBX 6 9 0 0
BITMAP
30
30
30
30
30
30
FC
78
30
ENDCHAR
ENDFONT
